<mxfile host="app.diagrams.net" modified="2024-06-25T12:53:16.172Z" agent="Mozilla/5.0 (Windows NT 10.0; Win64; x64) AppleWebKit/537.36 (KHTML, like Gecko) Chrome/126.0.0.0 Safari/537.36" etag="FUC6vaqEJH9kewUgJvJT" version="24.4.8" type="device">
  <diagram name="Page-1" id="MSD9Lf5btHf2DW1tmPu-">
    <mxGraphModel dx="1867" dy="723" grid="1" gridSize="10" guides="1" tooltips="1" connect="1" arrows="1" fold="1" page="1" pageScale="1" pageWidth="850" pageHeight="1100" math="0" shadow="0">
      <root>
        <mxCell id="0" />
        <mxCell id="1" parent="0" />
        <mxCell id="FUYgzfPthbqKXzU7wn8n-11" style="edgeStyle=orthogonalEdgeStyle;rounded=0;orthogonalLoop=1;jettySize=auto;html=1;exitX=0.5;exitY=1;exitDx=0;exitDy=0;exitPerimeter=0;" edge="1" parent="1" source="FUYgzfPthbqKXzU7wn8n-1" target="FUYgzfPthbqKXzU7wn8n-2">
          <mxGeometry relative="1" as="geometry" />
        </mxCell>
        <mxCell id="FUYgzfPthbqKXzU7wn8n-1" value="Start" style="strokeWidth=2;html=1;shape=mxgraph.flowchart.start_1;whiteSpace=wrap;" vertex="1" parent="1">
          <mxGeometry x="250" y="50" width="100" height="60" as="geometry" />
        </mxCell>
        <mxCell id="FUYgzfPthbqKXzU7wn8n-7" style="edgeStyle=orthogonalEdgeStyle;rounded=0;orthogonalLoop=1;jettySize=auto;html=1;exitX=0;exitY=0.5;exitDx=0;exitDy=0;exitPerimeter=0;" edge="1" parent="1" source="FUYgzfPthbqKXzU7wn8n-2" target="FUYgzfPthbqKXzU7wn8n-5">
          <mxGeometry relative="1" as="geometry" />
        </mxCell>
        <mxCell id="FUYgzfPthbqKXzU7wn8n-9" value="Yes" style="edgeLabel;html=1;align=center;verticalAlign=middle;resizable=0;points=[];" vertex="1" connectable="0" parent="FUYgzfPthbqKXzU7wn8n-7">
          <mxGeometry x="-0.5774" y="1" relative="1" as="geometry">
            <mxPoint x="19" y="-14" as="offset" />
          </mxGeometry>
        </mxCell>
        <mxCell id="FUYgzfPthbqKXzU7wn8n-2" value="Is Sunday ?" style="strokeWidth=2;html=1;shape=mxgraph.flowchart.decision;whiteSpace=wrap;" vertex="1" parent="1">
          <mxGeometry x="250" y="170" width="100" height="100" as="geometry" />
        </mxCell>
        <mxCell id="FUYgzfPthbqKXzU7wn8n-3" value="End" style="strokeWidth=2;html=1;shape=mxgraph.flowchart.start_1;whiteSpace=wrap;" vertex="1" parent="1">
          <mxGeometry x="260" y="660" width="100" height="60" as="geometry" />
        </mxCell>
        <mxCell id="FUYgzfPthbqKXzU7wn8n-5" value="Enjoy" style="rounded=1;whiteSpace=wrap;html=1;" vertex="1" parent="1">
          <mxGeometry x="130" y="510" width="120" height="60" as="geometry" />
        </mxCell>
        <mxCell id="FUYgzfPthbqKXzU7wn8n-6" value="Attend Class" style="rounded=1;whiteSpace=wrap;html=1;" vertex="1" parent="1">
          <mxGeometry x="510" y="480" width="120" height="60" as="geometry" />
        </mxCell>
        <mxCell id="FUYgzfPthbqKXzU7wn8n-12" style="edgeStyle=orthogonalEdgeStyle;rounded=0;orthogonalLoop=1;jettySize=auto;html=1;exitX=0.5;exitY=1;exitDx=0;exitDy=0;entryX=0;entryY=0.5;entryDx=0;entryDy=0;entryPerimeter=0;" edge="1" parent="1" source="FUYgzfPthbqKXzU7wn8n-5" target="FUYgzfPthbqKXzU7wn8n-3">
          <mxGeometry relative="1" as="geometry" />
        </mxCell>
        <mxCell id="FUYgzfPthbqKXzU7wn8n-13" style="edgeStyle=orthogonalEdgeStyle;rounded=0;orthogonalLoop=1;jettySize=auto;html=1;exitX=0.5;exitY=1;exitDx=0;exitDy=0;entryX=1;entryY=0.5;entryDx=0;entryDy=0;entryPerimeter=0;" edge="1" parent="1" source="FUYgzfPthbqKXzU7wn8n-6" target="FUYgzfPthbqKXzU7wn8n-3">
          <mxGeometry relative="1" as="geometry" />
        </mxCell>
        <mxCell id="FUYgzfPthbqKXzU7wn8n-16" value="Yes" style="edgeStyle=orthogonalEdgeStyle;rounded=0;orthogonalLoop=1;jettySize=auto;html=1;exitX=0;exitY=0.5;exitDx=0;exitDy=0;exitPerimeter=0;entryX=0.75;entryY=0;entryDx=0;entryDy=0;" edge="1" parent="1" source="FUYgzfPthbqKXzU7wn8n-14" target="FUYgzfPthbqKXzU7wn8n-5">
          <mxGeometry x="-0.7857" relative="1" as="geometry">
            <mxPoint as="offset" />
          </mxGeometry>
        </mxCell>
        <mxCell id="FUYgzfPthbqKXzU7wn8n-17" style="edgeStyle=orthogonalEdgeStyle;rounded=0;orthogonalLoop=1;jettySize=auto;html=1;exitX=1;exitY=0.5;exitDx=0;exitDy=0;exitPerimeter=0;" edge="1" parent="1" source="FUYgzfPthbqKXzU7wn8n-14" target="FUYgzfPthbqKXzU7wn8n-6">
          <mxGeometry relative="1" as="geometry" />
        </mxCell>
        <mxCell id="FUYgzfPthbqKXzU7wn8n-18" value="No" style="edgeLabel;html=1;align=center;verticalAlign=middle;resizable=0;points=[];" vertex="1" connectable="0" parent="FUYgzfPthbqKXzU7wn8n-17">
          <mxGeometry x="-0.66" y="-1" relative="1" as="geometry">
            <mxPoint as="offset" />
          </mxGeometry>
        </mxCell>
        <mxCell id="FUYgzfPthbqKXzU7wn8n-14" value="Is Holiday ?" style="strokeWidth=2;html=1;shape=mxgraph.flowchart.decision;whiteSpace=wrap;" vertex="1" parent="1">
          <mxGeometry x="370" y="330" width="100" height="100" as="geometry" />
        </mxCell>
        <mxCell id="FUYgzfPthbqKXzU7wn8n-15" style="edgeStyle=orthogonalEdgeStyle;rounded=0;orthogonalLoop=1;jettySize=auto;html=1;exitX=1;exitY=0.5;exitDx=0;exitDy=0;exitPerimeter=0;entryX=0.5;entryY=0;entryDx=0;entryDy=0;entryPerimeter=0;" edge="1" parent="1" source="FUYgzfPthbqKXzU7wn8n-2" target="FUYgzfPthbqKXzU7wn8n-14">
          <mxGeometry relative="1" as="geometry" />
        </mxCell>
        <mxCell id="FUYgzfPthbqKXzU7wn8n-19" value="No" style="edgeLabel;html=1;align=center;verticalAlign=middle;resizable=0;points=[];" vertex="1" connectable="0" parent="FUYgzfPthbqKXzU7wn8n-15">
          <mxGeometry x="-0.81" y="-1" relative="1" as="geometry">
            <mxPoint as="offset" />
          </mxGeometry>
        </mxCell>
      </root>
    </mxGraphModel>
  </diagram>
</mxfile>
